# WaveFront *.obj file (generated by CINEMA 4D)

mtllib ./cube_outline.mtl

v -40.00000000000000 -81.00000000000000 -40.00000000000000
v -40.00000000000000 -79.00000000000000 -40.00000000000000
v -39.00000000000000 -80.00000000000000 -40.00000000000000
v -40.00000000000000 -80.00000000000000 -39.00000000000000
v -41.00000000000000 -80.00000000000000 -40.00000000000000
v -40.00000000000000 -80.00000000000000 -41.00000000000000
v -40.00000000000000 79.00000000000000 -40.00000000000000
v -40.00000000000000 81.00000000000000 -40.00000000000000
v -39.00000000000000 80.00000000000000 -40.00000000000000
v -40.00000000000000 80.00000000000000 -39.00000000000000
v -41.00000000000000 80.00000000000000 -40.00000000000000
v -40.00000000000000 80.00000000000000 -41.00000000000000
v 40.00000000000000 -81.00000000000000 -40.00000000000000
v 40.00000000000000 -79.00000000000000 -40.00000000000000
v 41.00000000000000 -80.00000000000000 -40.00000000000000
v 40.00000000000000 -80.00000000000000 -39.00000000000000
v 39.00000000000000 -80.00000000000000 -40.00000000000000
v 40.00000000000000 -80.00000000000000 -41.00000000000000
v 40.00000000000000 79.00000000000000 -40.00000000000000
v 40.00000000000000 81.00000000000000 -40.00000000000000
v 41.00000000000000 80.00000000000000 -40.00000000000000
v 40.00000000000000 80.00000000000000 -39.00000000000000
v 39.00000000000000 80.00000000000000 -40.00000000000000
v 40.00000000000000 80.00000000000000 -41.00000000000000
v 40.00000000000000 -81.00000000000000 40.00000000000000
v 40.00000000000000 -79.00000000000000 40.00000000000000
v 41.00000000000000 -80.00000000000000 40.00000000000000
v 40.00000000000000 -80.00000000000000 41.00000000000000
v 39.00000000000000 -80.00000000000000 40.00000000000000
v 40.00000000000000 -80.00000000000000 39.00000000000000
v 40.00000000000000 79.00000000000000 40.00000000000000
v 40.00000000000000 81.00000000000000 40.00000000000000
v 41.00000000000000 80.00000000000000 40.00000000000000
v 40.00000000000000 80.00000000000000 41.00000000000000
v 39.00000000000000 80.00000000000000 40.00000000000000
v 40.00000000000000 80.00000000000000 39.00000000000000
v -40.00000000000000 -81.00000000000000 40.00000000000000
v -40.00000000000000 -79.00000000000000 40.00000000000000
v -39.00000000000000 -80.00000000000000 40.00000000000000
v -40.00000000000000 -80.00000000000000 41.00000000000000
v -41.00000000000000 -80.00000000000000 40.00000000000000
v -40.00000000000000 -80.00000000000000 39.00000000000000
v -40.00000000000000 79.00000000000000 40.00000000000000
v -40.00000000000000 81.00000000000000 40.00000000000000
v -39.00000000000000 80.00000000000000 40.00000000000000
v -40.00000000000000 80.00000000000000 41.00000000000000
v -41.00000000000000 80.00000000000000 40.00000000000000
v -40.00000000000000 80.00000000000000 39.00000000000000
# 48 vertices

vn 0.00000000000000 -1.00000000000000 0.00000000000000
vn 1.00000000000000 0.00000000000000 0.00000000000000
vn 0.00000000000000 0.00000000000000 1.00000000000000
vn 0.00000000000000 0.00000000000000 0.00000000000000
vn 0.00000000000000 1.00000000000000 0.00000000000000
vn -1.00000000000000 0.00000000000000 0.00000000000000
vn 0.00000000000000 0.00000000000000 -1.00000000000000
vn 0.00000000000000 0.00000000000000 1.00000000000000
vn -1.00000000000000 0.00000000000000 0.00000000000000
vn 0.00000000000000 0.00000000000000 -1.00000000000000
vn 1.00000000000000 0.00000000000000 0.00000000000000
vn 0.00000000000000 -1.00000000000000 0.00000000000000
vn 0.00000000000000 1.00000000000000 0.00000000000000
# 13 normals

vt 0.00000000000000 -1.00000000000000 0.00000000000000
vt 0.00000000000000 -0.50000000000000 0.00000000000000
vt 0.25000000000000 -0.50000000000000 0.00000000000000
vt 0.00000000000000 -0.00000000000000 0.00000000000000
vt 0.25000000000000 -1.00000000000000 0.00000000000000
vt 0.50000000000000 -0.50000000000000 0.00000000000000
vt 0.25000000000000 -0.00000000000000 0.00000000000000
vt 0.50000000000000 -1.00000000000000 0.00000000000000
vt 0.75000000000000 -0.50000000000000 0.00000000000000
vt 0.50000000000000 -0.00000000000000 0.00000000000000
vt 0.75000000000000 -1.00000000000000 0.00000000000000
vt 1.00000000000000 -0.50000000000000 0.00000000000000
vt 0.75000000000000 -0.00000000000000 0.00000000000000
vt 1.00000000000000 -0.00000000000000 0.00000000000000
vt 1.00000000000000 -1.00000000000000 0.00000000000000
# 15 texture coordinates

o Würfel
usemtl default
f 1/4/1 3/3/2 4/2/3
f 4/4/3 3/4/2 2/2/5
f 1/4/1 4/6/3 5/3/6
f 5/4/6 4/7/3 2/3/5
f 1/4/1 5/9/6 6/6/7
f 6/4/7 5/10/6 2/6/5
f 1/4/1 6/12/7 3/9/2
f 3/4/2 6/13/7 2/9/5
f 7/4/1 9/3/2 10/2/3
f 10/4/3 9/4/2 8/2/5
f 7/4/1 10/6/3 11/3/6
f 11/4/6 10/7/3 8/3/5
f 7/4/1 11/9/6 12/6/7
f 12/4/7 11/10/6 8/6/5
f 7/4/1 12/12/7 9/9/2
f 9/4/2 12/13/7 8/9/5
f 13/4/1 15/3/2 16/2/3
f 16/4/3 15/4/2 14/2/5
f 13/4/1 16/6/3 17/3/6
f 17/4/6 16/7/3 14/3/5
f 13/4/1 17/9/6 18/6/7
f 18/4/7 17/10/6 14/6/5
f 13/4/1 18/12/7 15/9/2
f 15/4/2 18/13/7 14/9/5
f 19/4/1 21/3/2 22/2/3
f 22/4/3 21/4/2 20/2/5
f 19/4/1 22/6/3 23/3/6
f 23/4/6 22/7/3 20/3/5
f 19/4/1 23/9/6 24/6/7
f 24/4/7 23/10/6 20/6/5
f 19/4/1 24/12/7 21/9/2
f 21/4/2 24/13/7 20/9/5
f 25/4/1 27/3/2 28/2/3
f 28/4/3 27/4/2 26/2/5
f 25/4/1 28/6/3 29/3/6
f 29/4/6 28/7/3 26/3/5
f 25/4/1 29/9/6 30/6/7
f 30/4/7 29/10/6 26/6/5
f 25/4/1 30/12/7 27/9/2
f 27/4/2 30/13/7 26/9/5
f 31/4/1 33/3/2 34/2/3
f 34/4/3 33/4/2 32/2/5
f 31/4/1 34/6/3 35/3/6
f 35/4/6 34/7/3 32/3/5
f 31/4/1 35/9/6 36/6/7
f 36/4/7 35/10/6 32/6/5
f 31/4/1 36/12/7 33/9/2
f 33/4/2 36/13/7 32/9/5
f 37/4/1 39/3/2 40/2/3
f 40/4/3 39/4/2 38/2/5
f 37/4/1 40/6/3 41/3/6
f 41/4/6 40/7/3 38/3/5
f 37/4/1 41/9/6 42/6/7
f 42/4/7 41/10/6 38/6/5
f 37/4/1 42/12/7 39/9/2
f 39/4/2 42/13/7 38/9/5
f 43/4/1 45/3/2 46/2/3
f 46/4/3 45/4/2 44/2/5
f 43/4/1 46/6/3 47/3/6
f 47/4/6 46/7/3 44/3/5
f 43/4/1 47/9/6 48/6/7
f 48/4/7 47/10/6 44/6/5
f 43/4/1 48/12/7 45/9/2
f 45/4/2 48/13/7 44/9/5
f 4/5/8 10/7/8 11/4/9 5/1/9
f 5/8/9 11/10/9 12/7/10 6/5/10
f 6/11/10 12/13/10 9/10/11 3/8/11
f 3/15/11 9/14/11 10/13/8 4/11/8
f 12/5/10 24/7/10 19/4/12 7/1/12
f 7/8/12 19/10/12 22/7/8 10/5/8
f 10/11/8 22/13/8 20/10/13 8/8/13
f 8/15/13 20/14/13 24/13/10 12/11/10
f 24/5/10 18/7/10 17/4/9 23/1/9
f 23/8/9 17/10/9 16/7/8 22/5/8
f 22/11/8 16/13/8 15/10/11 21/8/11
f 21/15/11 15/14/11 18/13/10 24/11/10
f 16/5/8 4/7/8 1/4/12 13/1/12
f 13/8/12 1/10/12 6/7/10 18/5/10
f 18/11/10 6/13/10 2/10/13 14/8/13
f 14/15/13 2/14/13 4/13/8 16/11/8
f 19/5/12 31/7/12 35/4/9 23/1/9
f 23/8/9 35/10/9 32/7/13 20/5/13
f 20/11/13 32/13/13 33/10/11 21/8/11
f 21/15/11 33/14/11 31/13/12 19/11/12
f 36/5/10 30/7/10 29/4/9 35/1/9
f 35/8/9 29/10/9 28/7/8 34/5/8
f 34/11/8 28/13/8 27/10/11 33/8/11
f 33/15/11 27/14/11 30/13/10 36/11/10
f 26/5/13 14/7/13 17/4/9 29/1/9
f 29/8/9 17/10/9 13/7/12 25/5/12
f 25/11/12 13/13/12 15/10/11 27/8/11
f 27/15/11 15/14/11 14/13/13 26/11/13
f 34/5/8 46/7/8 43/4/12 31/1/12
f 31/8/12 43/10/12 48/7/10 36/5/10
f 36/11/10 48/13/10 44/10/13 32/8/13
f 32/15/13 44/14/13 46/13/8 34/11/8
f 48/5/10 42/7/10 41/4/9 47/1/9
f 47/8/9 41/10/9 40/7/8 46/5/8
f 46/11/8 40/13/8 39/10/11 45/8/11
f 45/15/11 39/14/11 42/13/10 48/11/10
f 42/5/10 30/7/10 25/4/12 37/1/12
f 37/8/12 25/10/12 28/7/8 40/5/8
f 40/11/8 28/13/8 26/10/13 38/8/13
f 38/15/13 26/14/13 30/13/10 42/11/10
f 44/5/13 8/7/13 11/4/9 47/1/9
f 47/8/9 11/10/9 7/7/12 43/5/12
f 43/11/12 7/13/12 9/10/11 45/8/11
f 45/15/11 9/14/11 8/13/13 44/11/13
f 1/5/12 37/7/12 41/4/9 5/1/9
f 5/8/9 41/10/9 38/7/13 2/5/13
f 2/11/13 38/13/13 39/10/11 3/8/11
f 3/15/11 39/14/11 37/13/12 1/11/12

